<svg version="1.0" xmlns="http://www.w3.org/2000/svg"
 width="991.000000pt" height="228.000000pt" viewBox="0 0 991.000000 228.000000"
 preserveAspectRatio="xMidYMid meet">
<g transform="translate(0.000000,228.000000) scale(0.100000,-0.100000)"
fill="current" stroke="none">
<path d="M5036 2205 c-21 -19 -34 -35 -29 -35 5 0 13 3 17 8 4 4 13 7 19 7 7
1 11 7 9 14 -1 7 2 9 9 5 8 -4 0 -17 -23 -38 -38 -34 -86 -96 -90 -117 -4 -17
-40 -45 -52 -41 -5 2 -5 -3 1 -10 8 -9 7 -16 -2 -25 -8 -7 -15 -9 -18 -5 -2 4
-3 2 -1 -4 3 -12 -34 -95 -46 -104 -14 -10 -160 -325 -196 -420 -14 -36 -36
-88 -50 -117 -15 -28 -23 -56 -20 -62 4 -6 3 -11 -3 -11 -5 0 -12 -14 -16 -30
-4 -17 -11 -30 -16 -30 -5 0 -4 12 2 26 5 15 8 29 5 31 -2 2 7 32 21 65 13 33
22 63 19 66 -3 2 -8 -4 -12 -14 -3 -10 -16 -46 -29 -79 -66 -170 -91 -230 -97
-233 -5 -2 -8 -12 -8 -21 0 -10 -8 -26 -19 -35 -17 -16 -19 -16 -25 0 -31 80
-26 423 9 614 2 14 11 69 19 122 9 53 21 108 27 121 9 20 8 30 -6 51 -19 29
-28 32 -42 14 -14 -18 -22 -53 -44 -198 -31 -205 -43 -428 -31 -560 11 -129
30 -184 72 -218 28 -22 31 -22 60 -7 34 17 45 40 100 200 79 230 148 393 254
601 89 174 138 260 160 282 15 15 16 15 16 -5 0 -16 8 -22 36 -28 l37 -6 -7
-62 c-4 -34 -10 -82 -12 -107 -6 -67 -7 -70 -14 -70 -4 0 -4 -14 -2 -31 3 -24
1 -30 -8 -24 -9 6 -10 0 -5 -25 5 -25 4 -31 -5 -25 -10 6 -12 1 -8 -18 3 -15
1 -28 -4 -29 -5 -2 -10 -27 -12 -55 -2 -28 -6 -55 -9 -60 -9 -16 -29 -203 -24
-223 3 -11 2 -18 -3 -15 -4 3 -11 -49 -15 -115 l-7 -119 -72 -15 c-39 -9 -87
-17 -106 -18 -27 -2 -36 -8 -38 -24 -2 -11 4 -26 12 -33 16 -13 39 -10 155 23
47 13 56 13 76 0 21 -14 23 -13 29 10 6 26 8 27 198 81 56 16 101 19 199 15
80 -3 275 58 266 84 -3 6 5 21 16 33 11 13 16 23 11 23 -5 0 -65 -18 -133 -40
-75 -24 -142 -40 -172 -40 -47 0 -49 1 -49 28 1 32 21 111 34 131 7 11 5 13
-7 8 -11 -4 -14 -2 -11 8 3 8 12 11 20 8 9 -3 14 2 14 15 0 12 4 23 9 27 5 3
19 34 31 70 20 61 23 65 58 71 160 30 199 41 220 62 13 13 21 26 18 29 -3 3
-55 0 -117 -6 -61 -7 -113 -10 -115 -8 -2 1 17 61 41 132 51 148 54 174 23
194 -19 12 -23 11 -35 -5 -7 -10 -13 -27 -13 -38 0 -12 -22 -84 -49 -161 l-48
-140 -41 -9 c-23 -6 -42 -12 -42 -16 0 -3 12 -18 26 -34 l27 -28 -36 -82 c-59
-136 -66 -188 -32 -268 5 -14 -3 -17 -52 -23 -65 -7 -139 -20 -196 -34 -28 -7
-37 -6 -34 2 15 41 80 250 106 342 82 286 207 657 224 666 7 5 56 13 108 20
52 6 100 16 107 22 6 5 12 6 12 1 0 -12 198 -16 218 -5 28 16 -44 43 -131 49
-88 6 -282 -12 -367 -33 -114 -29 -215 -43 -233 -33 -10 5 -27 6 -39 2 l-21
-6 21 28 c11 16 38 46 60 67 34 33 43 37 60 28 27 -14 32 -14 32 3 0 17 -51
56 -72 56 -8 0 -31 -16 -52 -35z m624 -99 c0 -7 -12 -11 -27 -10 -16 1 -43 3
-60 3 -18 1 -33 6 -33 12 0 6 23 9 60 8 36 -1 60 -7 60 -13z m-175 -6 c-22 -5
-51 -9 -65 -9 -46 1 9 15 59 16 l46 1 -40 -8z m-225 -77 c0 -3 -29 -97 -64
-207 -36 -111 -92 -293 -125 -406 -60 -207 -99 -313 -100 -275 -1 11 6 101 14
200 13 161 20 213 40 320 30 157 45 256 45 291 l0 41 88 21 c102 24 102 24
102 15z m-273 -505 c-3 -8 -6 -5 -6 6 -1 11 2 17 5 13 3 -3 4 -12 1 -19z m366
-198 c-3 -12 -8 -19 -11 -16 -5 6 5 36 12 36 2 0 2 -9 -1 -20z m-823 -144 c0
-3 -4 -8 -10 -11 -5 -3 -10 -1 -10 4 0 6 5 11 10 11 6 0 10 -2 10 -4z"/>
<path d="M8213 2211 c-13 -9 -43 -93 -43 -118 0 -12 -4 -24 -9 -28 -6 -3 -13
-27 -16 -53 -4 -26 -9 -54 -12 -62 -4 -8 -8 -24 -9 -35 -1 -11 -12 -65 -23
-120 -11 -55 -25 -136 -31 -180 -15 -112 -19 -127 -33 -122 -6 2 -31 -2 -55
-9 -23 -7 -40 -9 -37 -4 4 6 1 10 -4 10 -6 0 -11 -7 -11 -16 0 -13 -6 -15 -27
-10 -21 5 -24 4 -13 -4 12 -8 10 -10 -10 -7 -14 1 -31 7 -39 11 -11 7 -13 5
-7 -10 6 -17 6 -18 -9 -3 -14 14 -15 24 -5 80 7 35 16 89 21 119 4 30 24 113
43 185 36 134 35 155 -5 155 -10 0 -25 -13 -33 -28 -16 -30 -65 -260 -85 -397
-19 -123 -19 -124 -46 -131 -14 -3 -25 -12 -25 -20 0 -8 -4 -14 -10 -14 -5 0
-10 5 -10 10 0 14 -46 2 -87 -23 -41 -24 -48 -63 -8 -45 13 6 22 15 18 21 -3
6 -2 7 4 4 5 -3 33 3 62 13 28 11 57 20 64 20 10 0 12 -32 9 -139 -3 -104 -1
-144 9 -162 13 -23 14 -20 20 41 3 40 1 71 -5 79 -8 11 -8 13 0 8 17 -10 32
32 38 112 4 40 9 77 11 81 3 4 47 15 97 25 51 9 100 18 108 20 34 10 38 -7 24
-95 -8 -47 -23 -155 -34 -240 -26 -188 -28 -200 -45 -194 -17 7 -27 -23 -15
-47 16 -29 77 -26 90 4 6 12 26 145 45 296 19 151 37 277 40 280 4 3 37 7 76
9 59 4 69 7 69 23 0 24 -43 35 -76 20 -29 -13 -64 -15 -64 -3 0 18 52 324 66
392 23 106 63 232 81 252 22 25 13 53 -19 54 -15 1 -31 -2 -35 -5z m-26 -133
c-3 -8 -6 -5 -6 6 -1 11 2 17 5 13 3 -3 4 -12 1 -19z m-10 -40 c-3 -8 -6 -5
-6 6 -1 11 2 17 5 13 3 -3 4 -12 1 -19z m-10 -40 c-3 -8 -6 -5 -6 6 -1 11 2
17 5 13 3 -3 4 -12 1 -19z m-32 -148 c-14 -63 -23 -92 -20 -65 6 61 37 204 41
190 2 -5 -8 -62 -21 -125z m-316 -104 c-9 -8 -10 -7 -5 7 3 10 7 26 7 35 1 9
4 6 6 -7 3 -13 -1 -28 -8 -35z m288 -48 c-3 -7 -5 -2 -5 12 0 14 2 19 5 13 2
-7 2 -19 0 -25z m-317 -125 c-12 -65 -24 -120 -26 -122 -9 -9 -3 50 10 115 8
38 18 87 22 109 3 22 8 35 11 28 2 -6 -5 -65 -17 -130z m305 50 c-4 -31 -11
-66 -16 -77 -7 -17 -8 -16 -4 9 2 17 7 51 11 78 3 26 9 47 11 47 3 0 2 -25 -2
-57z m-34 -233 c-6 -44 -9 -53 -10 -29 -1 37 9 102 15 96 2 -1 -1 -32 -5 -67z
m-304 -12 c-3 -7 -5 -2 -5 12 0 14 2 19 5 13 2 -7 2 -19 0 -25z m-87 18 c0 -2
-9 -6 -20 -9 -11 -3 -18 -1 -14 4 5 9 34 13 34 5z m77 -128 c-2 -13 -4 -3 -4
22 0 25 2 35 4 23 2 -13 2 -33 0 -45z m300 20 c-3 -8 -6 -5 -6 6 -1 11 2 17 5
13 3 -3 4 -12 1 -19z"/>
<path d="M9047 2173 c-3 -5 -27 -66 -55 -138 -27 -71 -82 -199 -121 -283 -39
-85 -71 -157 -71 -160 0 -4 -6 -18 -13 -32 -8 -14 -40 -74 -71 -135 -62 -116
-174 -290 -210 -324 -11 -11 -33 -22 -48 -26 -38 -10 -50 20 -51 124 -1 145
56 421 118 576 13 33 26 74 27 90 3 26 -1 30 -22 33 -21 2 -29 -4 -44 -35 -94
-197 -161 -586 -125 -729 14 -53 66 -114 99 -114 70 0 163 102 271 297 38 68
69 127 70 131 1 23 87 183 92 171 3 -8 6 -4 6 10 1 13 3 22 6 19 3 -3 2 -25
-2 -49 -6 -40 -7 -42 -15 -19 -5 16 -6 6 -3 -30 2 -34 1 -45 -4 -30 -6 21 -8
15 -14 -30 -4 -30 -5 -84 -3 -120 3 -50 2 -56 -4 -25 -5 26 -7 -11 -7 -105 0
-170 7 -211 43 -235 32 -20 40 -14 23 17 -10 16 -13 66 -13 173 2 286 53 548
166 859 31 86 36 111 26 117 -16 11 -45 11 -51 2z m-130 -412 c-11 -51 -129
-301 -222 -466 -33 -59 -90 -131 -109 -138 -22 -9 -13 15 27 68 80 105 104
142 144 215 23 41 49 95 58 120 10 25 30 71 46 103 15 31 26 65 23 75 -5 15
-4 15 6 2 9 -12 11 -10 7 12 -2 15 0 25 4 22 5 -3 9 0 9 5 0 6 3 11 6 11 4 0
4 -13 1 -29z m-40 -338 c-3 -10 -5 -2 -5 17 0 19 2 27 5 18 2 -10 2 -26 0 -35z"/>
<path d="M6743 2163 c-7 -2 -13 -9 -13 -14 0 -6 5 -7 10 -4 6 3 10 1 10 -4 0
-6 -5 -11 -11 -11 -17 0 -38 -31 -38 -55 0 -14 4 -11 14 13 17 38 20 40 20 8
0 -13 -4 -22 -9 -19 -4 3 -5 -5 -1 -17 5 -15 4 -20 -4 -16 -11 7 -16 -10 -13
-44 1 -8 -4 -33 -9 -54 -8 -30 -13 -36 -21 -25 -7 10 -8 6 -3 -14 3 -17 2 -26
-4 -23 -10 6 -26 -43 -16 -52 3 -3 5 2 5 11 0 9 4 18 9 21 4 3 1 -19 -8 -49
-11 -39 -18 -49 -23 -37 -6 16 -7 16 -7 0 -1 -9 4 -20 10 -24 7 -4 7 -9 2 -13
-5 -3 -14 -31 -19 -61 -6 -35 -14 -54 -22 -52 -9 1 -10 -9 -6 -38 5 -30 3 -41
-8 -45 -10 -4 -13 -16 -11 -38 4 -25 2 -29 -7 -17 -9 12 -10 7 -5 -20 5 -29 4
-32 -6 -17 -6 10 -8 35 -5 55 l5 37 -13 -40 c-15 -45 -30 -141 -17 -111 8 20
8 20 12 0 3 -10 -3 -35 -13 -54 -10 -19 -18 -28 -19 -20 -1 19 -18 -19 -18
-40 0 -9 4 -8 9 5 7 16 9 16 9 4 1 -28 -26 -84 -32 -68 -4 9 -6 6 -5 -6 2 -22
-45 -129 -60 -139 -19 -11 -24 50 -22 234 4 291 3 300 -50 319 -23 8 -34 5
-64 -15 -20 -14 -36 -32 -36 -40 0 -8 -11 -26 -25 -40 -30 -30 -31 -34 -6 -29
14 2 18 -1 14 -11 -3 -7 -10 -11 -16 -7 -6 4 -8 0 -5 -9 4 -8 1 -15 -7 -15 -7
0 -11 7 -8 16 4 12 3 13 -4 3 -5 -7 -9 -28 -8 -47 0 -18 -3 -31 -7 -29 -10 7
-39 -66 -31 -79 4 -6 1 -7 -7 -2 -10 6 -12 3 -8 -13 4 -12 3 -20 -1 -17 -4 2
-30 -42 -56 -98 -27 -56 -52 -104 -56 -107 -10 -7 -38 -77 -33 -84 2 -3 1 -4
-2 -2 -3 3 -17 -7 -30 -22 -23 -26 -25 -26 -38 -9 -19 25 -30 130 -21 209 3
35 9 83 11 108 5 44 16 98 54 250 38 154 51 200 76 260 29 72 26 93 -13 88
-26 -3 -29 -10 -66 -133 -71 -243 -109 -436 -112 -578 -2 -70 0 -125 4 -123 4
3 7 -11 7 -30 0 -43 55 -104 94 -104 52 0 77 40 190 301 84 192 141 304 176
343 14 15 27 27 28 25 2 -2 6 -60 9 -129 3 -69 2 -116 -2 -105 -5 11 -6 -38
-4 -110 6 -144 19 -189 65 -215 26 -14 29 -13 57 14 47 45 78 139 147 451 44
198 136 519 169 590 24 50 30 72 22 77 -13 9 -36 9 -54 1z m-189 -738 c5 -22
4 -26 -4 -15 -5 8 -10 24 -10 34 0 26 6 18 14 -19z m-443 -172 c-12 -20 -14
-14 -5 12 4 9 9 14 11 11 3 -2 0 -13 -6 -23z"/>
<path d="M3373 2153 c15 -2 39 -2 55 0 15 2 2 4 -28 4 -30 0 -43 -2 -27 -4z"/>
<path d="M3466 2145 c4 -8 12 -15 18 -15 7 0 13 7 13 15 0 8 -8 15 -18 15 -12
0 -16 -5 -13 -15z"/>
<path d="M3307 2137 c-5 -15 -77 -40 -77 -27 0 12 -131 -42 -179 -73 -64 -42
-94 -101 -71 -137 8 -12 15 -9 39 20 l30 35 1 -68 c0 -38 4 -66 8 -63 4 2 9
-21 10 -52 4 -87 12 -75 12 17 0 45 -4 80 -8 77 -5 -3 -8 21 -7 52 1 52 3 58
33 78 51 35 173 82 254 99 113 24 231 1 296 -59 59 -53 79 -150 45 -220 -24
-52 -208 -225 -286 -270 -37 -21 -64 -43 -60 -49 3 -5 2 -7 -4 -4 -5 3 -31 -5
-58 -18 -57 -29 -66 -30 -106 -10 -25 14 -28 18 -18 36 6 11 17 44 26 72 8 29
20 61 27 72 24 39 77 195 74 217 -2 16 -11 24 -28 26 -23 3 -28 -3 -47 -60
-11 -35 -31 -92 -43 -128 -12 -36 -34 -98 -47 -137 -16 -46 -30 -73 -40 -73
-8 0 -11 5 -8 10 3 6 1 10 -4 10 -6 0 -12 21 -13 48 -1 38 -2 40 -5 12 -6 -56
-13 -81 -22 -76 -15 10 -71 -15 -82 -36 -17 -31 4 -48 47 -37 35 10 54 6 54
-12 0 -7 -15 -8 -40 -4 -22 4 -40 4 -40 0 0 -14 45 -65 58 -65 11 0 13 -8 8
-31 -3 -17 -6 -38 -6 -46 0 -8 -4 -12 -9 -9 -5 4 -8 -2 -7 -11 2 -10 0 -25 -5
-33 -4 -8 -20 -60 -34 -115 -15 -55 -31 -104 -35 -110 -16 -21 -17 -55 -3 -74
17 -25 43 -28 43 -6 0 9 9 33 19 53 10 21 22 55 25 77 8 51 21 101 53 200 37
117 41 125 60 125 10 0 25 5 33 11 13 9 12 10 -2 5 -11 -3 -15 -1 -12 8 9 23
73 7 165 -40 106 -55 188 -137 216 -213 9 -27 21 -47 25 -45 4 3 8 -3 8 -12 0
-13 3 -15 11 -7 6 6 8 25 3 49 -7 36 -8 37 -15 14 -6 -23 -7 -23 -8 -3 -1 12
-4 30 -7 40 -5 15 -4 15 5 3 9 -13 11 -13 11 1 0 28 -62 110 -114 151 -28 22
-78 56 -111 75 -34 19 -62 41 -62 49 0 10 5 10 21 2 19 -10 19 -9 8 5 -11 13
-10 15 12 13 15 -2 26 1 26 6 0 6 7 7 16 4 8 -3 12 -2 9 3 -3 5 -1 12 5 16 6
4 8 10 5 15 -3 5 0 12 6 16 8 5 9 3 4 -6 -5 -8 -3 -11 6 -8 8 3 13 10 12 15
-1 6 10 8 24 5 22 -4 25 -2 19 13 -5 15 -4 16 9 5 11 -9 15 -9 15 -1 0 7 4 10
9 6 6 -3 8 4 6 15 -2 11 0 18 5 15 14 -9 60 13 60 29 0 7 11 17 25 20 14 4 23
11 20 16 -3 5 6 16 19 25 14 9 28 26 31 36 4 11 17 30 29 42 22 21 56 111 56
148 0 35 -43 134 -71 161 -26 26 -57 39 -45 19 4 -5 -13 0 -36 12 -35 17 -62
21 -139 22 -80 0 -93 2 -80 13 14 11 11 12 -19 7 -26 -5 -31 -4 -20 4 13 9 13
11 -1 11 -9 0 -19 -6 -22 -13z m43 -762 c110 -56 217 -162 191 -188 -8 -8 -11
-7 -11 4 -1 32 -100 117 -205 174 -94 52 -73 59 25 10z"/>
<path d="M3408 2133 c12 -2 30 -2 40 0 9 3 -1 5 -23 4 -22 0 -30 -2 -17 -4z"/>
<path d="M7315 2123 c-178 -51 -302 -102 -283 -116 9 -6 8 -7 -6 -3 -21 7
-169 -71 -161 -85 4 -5 0 -6 -8 -3 -23 8 -122 -80 -147 -131 -43 -89 -6 -154
135 -237 266 -159 299 -261 132 -407 -67 -59 -98 -77 -150 -86 -20 -4 -34 -11
-31 -16 7 -12 -1 -11 -42 6 -29 12 -33 17 -25 33 10 20 82 85 125 115 14 10
25 23 23 30 -1 7 4 11 11 10 6 -2 12 1 12 6 0 5 9 13 20 16 23 7 27 25 6 25
-23 0 -148 -69 -179 -98 -42 -40 -60 -80 -53 -120 7 -49 32 -72 75 -72 39 0
154 43 159 60 2 5 8 10 14 10 21 0 101 74 129 119 37 57 40 142 8 208 -27 56
-117 137 -232 209 -51 31 -100 64 -109 72 -49 41 8 124 143 207 197 122 388
194 518 195 l53 0 -6 -36 -7 -35 25 17 c32 20 33 38 4 80 -33 48 -64 53 -153
27z m-464 -916 c-7 -7 -14 -8 -21 -1 -6 6 -2 10 12 11 16 2 18 -1 9 -10z"/>
<path d="M9567 2085 c-52 -18 -89 -44 -81 -57 4 -6 3 -8 -3 -5 -13 8 -46 -27
-36 -38 5 -4 2 -5 -5 -1 -8 5 -34 -16 -72 -56 l-60 -63 0 37 c0 27 -6 40 -21
48 -11 7 -24 9 -27 5 -4 -3 -8 -47 -10 -98 -5 -125 -5 -126 -17 -124 -5 1 -9
-6 -8 -16 0 -10 -2 -16 -5 -13 -8 9 -34 -32 -37 -60 -1 -14 -8 -31 -15 -37
-10 -10 -10 -7 -1 11 6 12 10 22 7 22 -8 0 -107 -191 -105 -203 3 -25 -1 -38
-11 -32 -6 4 -10 3 -9 -2 4 -24 -2 -43 -13 -37 -7 4 -8 3 -4 -5 9 -14 -3 -53
-14 -46 -13 8 -72 -178 -64 -201 11 -29 35 -54 54 -54 13 0 19 -11 23 -40 6
-47 45 -103 91 -131 41 -25 118 -24 173 1 62 28 134 80 127 91 -3 5 0 8 8 7 7
-2 12 3 11 9 -2 7 1 12 6 10 5 -1 23 16 41 38 121 150 128 364 18 490 l-41 47
29 23 c16 14 32 24 36 25 12 0 99 128 128 189 16 33 34 89 40 124 10 56 9 70
-5 101 -12 24 -26 38 -44 42 -14 3 -31 7 -36 9 -6 1 -28 -3 -48 -10z m78 -91
c0 -61 -5 -80 -37 -145 -50 -100 -97 -161 -158 -200 -27 -18 -50 -36 -50 -40
0 -4 21 -25 46 -46 65 -54 94 -115 94 -201 0 -132 -47 -239 -146 -332 -73 -68
-151 -110 -220 -118 -36 -4 -46 0 -68 21 -26 26 -31 51 -26 122 3 43 68 183
107 229 18 22 33 43 33 47 0 11 108 89 153 110 23 10 37 19 30 19 -22 0 -117
-41 -148 -64 -54 -40 -55 -39 -34 21 28 82 79 283 79 314 0 50 143 233 228
291 44 30 88 48 107 44 6 -2 10 -34 10 -72z m-444 -337 c-10 -9 -11 -8 -5 6 3
10 9 15 12 12 3 -3 0 -11 -7 -18z m0 -114 c-30 -105 -76 -225 -121 -314 -26
-50 -80 -122 -87 -115 -7 7 25 133 48 191 51 125 177 361 187 351 2 -3 -10
-53 -27 -113z m-70 -16 c-10 -9 -11 -8 -5 6 3 10 9 15 12 12 3 -3 0 -11 -7
-18z m-21 -37 c-6 -11 -13 -20 -16 -20 -2 0 0 9 6 20 6 11 13 20 16 20 2 0 0
-9 -6 -20z m375 -440 c-10 -11 -22 -17 -26 -14 -5 3 -9 0 -9 -7 0 -7 -3 -9 -6
-6 -9 9 16 38 26 32 5 -3 11 -1 15 5 3 5 9 10 12 10 3 0 -2 -9 -12 -20z m-170
-109 c-6 -6 -28 -17 -50 -27 -49 -20 -39 -7 13 17 44 21 49 22 37 10z"/>
<path d="M4365 2044 c-93 -7 -195 -26 -188 -37 4 -6 -4 -8 -20 -3 -30 7 -357
-62 -376 -80 -10 -9 34 -44 55 -44 13 0 76 14 141 30 171 44 386 80 478 80 84
1 128 17 103 38 -15 12 -122 21 -193 16z"/>
<path d="M5900 2044 c-85 -7 -190 -27 -190 -36 0 -5 -8 -7 -18 -4 -26 9 -352
-62 -371 -80 -8 -8 33 -44 50 -44 10 0 73 14 141 30 188 46 393 80 484 80 61
0 85 4 94 15 8 10 9 19 4 25 -11 10 -131 19 -194 14z"/>
<path d="M131 1833 c21 -82 126 -472 232 -868 l192 -720 53 -3 53 -3 -7 28
c-4 15 -11 38 -15 51 -5 13 -9 25 -9 26 0 5 200 59 204 55 1 -2 12 -38 22 -79
l20 -75 48 -3 c26 -2 53 1 59 6 15 12 918 255 924 248 2 -2 19 -60 37 -128
l33 -123 51 -3 c29 -2 52 -2 52 0 0 2 -9 36 -19 76 -14 53 -16 74 -8 77 44 14
166 45 178 45 10 0 20 -18 29 -52 7 -29 19 -74 27 -100 l14 -48 51 0 c43 0 50
2 46 18 -3 9 -108 401 -234 870 l-228 852 -52 0 -52 0 13 -45 14 -45 -57 -16
c-31 -8 -70 -20 -86 -25 -57 -18 -63 -14 -81 61 l-17 70 -53 0 c-50 0 -52 -1
-48 -24 5 -22 0 -26 -38 -36 -24 -7 -232 -63 -462 -125 l-419 -112 -8 23 c-5
13 -24 79 -42 148 l-33 126 -52 0 -52 0 18 -65 c10 -36 16 -67 12 -69 -3 -2
-48 -15 -99 -29 l-93 -26 -10 27 c-6 15 -18 57 -27 95 l-16 67 -52 0 -52 0 39
-147z m1763 -80 c21 -70 46 -170 46 -184 0 -12 -24 -22 -95 -39 -52 -13 -97
-22 -100 -18 -9 9 -56 190 -52 202 3 9 142 52 179 55 9 0 19 -7 22 -16z
m-1405 -60 c5 -21 18 -68 27 -105 10 -37 15 -70 12 -73 -4 -5 -181 -55 -192
-55 -6 0 -59 211 -54 215 4 4 174 53 190 54 4 1 12 -16 17 -36z m1228 -475
c67 -249 120 -455 118 -456 -9 -10 -921 -249 -926 -244 -7 9 -239 875 -239
895 0 9 131 49 448 134 246 67 454 122 463 122 12 1 41 -98 136 -451z m282
145 c11 -43 23 -92 27 -109 l6 -30 -84 -23 c-45 -12 -90 -24 -99 -27 -13 -4
-22 16 -44 101 -16 58 -26 108 -23 111 6 5 166 52 184 53 7 1 21 -34 33 -76z
m-1404 -69 c23 -87 26 -107 15 -114 -18 -11 -181 -52 -187 -47 -5 6 -53 186
-53 201 0 10 113 48 191 65 4 0 19 -47 34 -105z m1500 -289 c15 -58 25 -108
23 -111 -14 -14 -191 -55 -197 -45 -11 17 -55 200 -50 205 4 5 172 53 190 55
3 1 18 -46 34 -104z m-1415 -26 c36 -136 40 -128 -68 -157 -51 -14 -95 -22
-98 -19 -7 7 -54 178 -54 197 0 11 24 22 78 37 122 33 116 36 142 -58z m1505
-313 c21 -78 24 -100 14 -107 -7 -4 -51 -17 -97 -29 -63 -15 -87 -18 -92 -9
-7 10 -50 169 -54 193 -1 11 186 65 196 57 3 -3 18 -50 33 -105z m-1410 -41
c15 -58 26 -107 24 -108 -2 -2 -48 -15 -101 -29 l-98 -26 -11 42 c-6 22 -19
71 -29 108 l-18 67 51 15 c105 30 122 34 138 35 12 1 23 -25 44 -104z"/>
<path d="M3950 1854 c-6 -14 -10 -33 -11 -42 0 -9 -21 -78 -47 -152 l-47 -135
-40 -9 c-22 -5 -42 -11 -43 -12 -8 -5 34 -53 45 -54 9 0 4 -19 -13 -57 -15
-32 -37 -89 -51 -127 -21 -62 -22 -75 -13 -123 16 -76 45 -106 101 -106 82 0
274 63 266 87 -2 6 6 18 17 27 31 26 12 34 -36 16 -122 -44 -218 -68 -259 -65
l-44 3 2 40 c2 22 4 59 5 83 2 23 7 42 11 42 5 0 5 -4 2 -10 -3 -5 -1 -10 4
-10 14 0 14 17 2 25 -6 3 -6 17 1 36 6 16 12 28 14 26 3 -2 0 -16 -5 -31 -6
-14 -7 -26 -3 -26 11 1 45 80 46 110 1 16 4 26 9 23 4 -2 7 3 7 11 0 25 39 42
145 62 76 14 105 24 123 42 12 12 22 26 22 29 0 5 -89 -1 -192 -14 l-48 -6 45
133 c50 147 55 184 26 200 -28 14 -30 13 -41 -16z"/>
<path d="M4722 1725 c-17 -37 -14 -45 4 -12 9 16 14 31 11 33 -2 2 -9 -7 -15
-21z"/>
<path d="M3073 1630 c0 -41 2 -58 4 -37 2 20 2 54 0 75 -2 20 -4 3 -4 -38z"/>
<path d="M4696 1663 c-6 -14 -5 -15 5 -6 7 7 10 15 7 18 -3 3 -9 -2 -12 -12z"/>
<path d="M6581 1664 c0 -11 3 -14 6 -6 3 7 2 16 -1 19 -3 4 -6 -2 -5 -13z"/>
<path d="M6602 1660 c0 -14 2 -19 5 -12 2 6 2 18 0 25 -3 6 -5 1 -5 -13z"/>
<path d="M4656 1585 c-9 -26 -7 -32 5 -12 6 10 9 21 6 23 -2 3 -7 -2 -11 -11z"/>
<path d="M4453 543 c-46 -66 -97 -163 -86 -163 5 0 23 30 42 67 19 36 51 83
71 105 33 34 39 48 20 48 -4 0 -25 -26 -47 -57z"/>
<path d="M7014 573 c-10 -16 -27 -44 -40 -63 -26 -40 -114 -226 -114 -241 0
-6 -4 -7 -10 -4 -5 3 -7 0 -4 -8 3 -8 -2 -22 -11 -31 -9 -9 -13 -20 -10 -26 3
-5 2 -10 -3 -10 -5 0 -15 -13 -22 -30 -7 -16 -16 -30 -21 -30 -14 0 -10 187 5
265 13 62 8 103 -7 78 -13 -21 -27 -144 -27 -234 0 -80 3 -101 19 -120 26 -33
44 -15 72 69 29 90 134 308 171 355 16 20 37 37 46 37 15 0 15 2 2 10 -23 15
-28 12 -46 -17z"/>
<path d="M8246 565 c-5 -21 -13 -25 -49 -27 -41 -1 -41 -1 -7 -6 l35 -4 -35
-13 -35 -13 37 -1 c20 -1 40 -6 44 -13 4 -6 3 -8 -3 -5 -7 4 -11 -2 -11 -16 0
-12 -3 -38 -7 -57 -4 -19 -7 -44 -6 -55 0 -10 -4 -24 -9 -31 -6 -6 -10 -22 -9
-35 2 -41 -24 -189 -33 -189 -4 0 -8 -4 -8 -10 0 -5 9 -10 19 -10 21 0 26 14
36 115 11 109 13 115 46 115 19 0 28 4 23 11 -3 6 -17 8 -31 4 -20 -5 -24 -3
-20 12 3 10 8 38 12 63 7 46 31 147 41 175 4 9 1 15 -9 15 -8 0 -18 -11 -21
-25z"/>
<path d="M3717 550 c-63 -20 -97 -44 -97 -68 0 -12 5 -11 23 5 30 28 75 50
120 58 20 4 37 11 37 16 0 13 -17 11 -83 -11z"/>
<path d="M3810 561 c0 -9 30 -24 36 -18 2 1 -6 8 -16 15 -11 7 -20 8 -20 3z"/>
<path d="M5229 558 c-1 -21 -7 -51 -18 -90 -6 -21 -16 -57 -22 -80 -6 -24 -14
-50 -17 -58 -3 -8 -4 -18 -4 -22 1 -5 -2 -8 -7 -8 -5 0 -8 -8 -7 -17 2 -9 -5
-40 -16 -67 -10 -28 -18 -52 -18 -53 0 -2 -4 -3 -10 -3 -6 0 -10 40 -10 100 0
82 -3 102 -16 107 -17 6 -44 -15 -48 -38 -1 -8 -11 -30 -21 -49 -11 -19 -20
-37 -20 -40 -4 -24 -68 -129 -75 -125 -6 3 -10 34 -10 68 0 52 17 131 58 271
3 13 1 17 -9 14 -19 -6 -68 -199 -69 -271 0 -67 12 -97 40 -97 16 0 34 28 81
127 53 111 63 125 69 103 3 -14 5 -52 2 -86 -5 -64 8 -104 33 -104 22 0 30 23
74 198 23 89 47 178 55 197 13 31 13 35 0 35 -7 0 -14 -6 -15 -12z"/>
<path d="M7388 565 c-3 -3 -14 -7 -24 -10 -11 -2 -46 -10 -79 -18 -33 -8 -104
-22 -158 -32 -91 -16 -118 -27 -99 -38 4 -3 43 3 87 14 101 24 135 25 135 2 0
-14 4 -13 24 6 29 27 132 71 158 66 10 -2 18 0 18 6 0 9 -53 13 -62 4z"/>
<path d="M4683 547 c-2 -4 -9 -5 -14 -1 -11 7 -179 -17 -179 -26 0 -3 9 -13
20 -23 17 -14 20 -14 20 -2 0 8 6 15 13 15 6 0 22 3 35 6 16 5 21 3 18 -7 -3
-8 -21 -68 -41 -134 -20 -66 -43 -138 -51 -160 -14 -39 -14 -38 -10 50 5 107
-1 93 -17 -42 l-13 -98 -37 -3 c-25 -2 -37 -8 -37 -19 0 -12 6 -14 28 -8 15 4
36 8 47 9 11 1 22 4 25 7 3 4 28 14 55 23 l50 16 -49 -6 c-44 -5 -48 -4 -42
13 4 10 22 68 41 128 18 61 44 140 56 177 l23 67 60 5 c34 3 75 7 91 9 17 2 4
5 -28 7 -33 3 -61 2 -64 -3z"/>
<path d="M5443 540 c-74 -26 -161 -78 -179 -105 -22 -33 -10 -61 39 -92 23
-15 55 -38 70 -52 21 -19 27 -21 21 -8 -3 10 -35 38 -70 63 -35 25 -64 49 -64
54 0 4 17 23 37 41 44 38 141 84 201 94 35 6 42 4 42 -10 0 -9 5 -13 10 -10
17 10 -9 45 -33 45 -12 -1 -46 -9 -74 -20z"/>
<path d="M8573 547 c-2 -4 -9 -5 -14 -1 -13 8 -179 -18 -179 -28 0 -4 6 -11
14 -15 8 -4 16 -17 19 -28 4 -16 5 -15 6 6 1 21 7 28 33 33 17 3 33 5 34 3 4
-4 -93 -328 -101 -335 -7 -7 -5 38 4 110 4 31 4 55 0 52 -4 -2 -10 -36 -13
-76 -13 -131 -17 -142 -56 -148 -18 -3 -35 -11 -38 -19 -4 -11 2 -12 29 -6 19
4 41 8 49 9 9 1 21 6 29 10 7 5 34 15 60 22 l46 14 -51 -5 -52 -5 35 112 c19
62 47 149 62 193 30 90 33 92 145 94 55 1 58 0 44 -16 -8 -10 -34 -56 -58
-103 -23 -47 -46 -89 -51 -95 -5 -5 -6 28 -3 82 5 63 3 92 -5 97 -7 5 -11 -5
-11 -33 0 -21 -7 -92 -16 -155 -20 -148 -12 -177 22 -76 32 95 107 240 140
271 l25 24 -4 -72 c-3 -39 -7 -75 -10 -81 -4 -5 -12 -70 -18 -146 -11 -117
-10 -139 2 -151 12 -12 14 -7 11 41 -2 31 6 125 18 211 12 85 19 165 16 178
-5 18 -15 25 -48 31 -59 10 -109 10 -115 1z"/>
<path d="M8958 526 c-22 -24 -101 -161 -81 -141 5 6 31 38 57 73 50 65 55 69
74 50 16 -16 29 -1 16 20 -17 26 -42 26 -66 -2z"/>
<path d="M3879 514 c12 -15 21 -38 21 -51 0 -31 -78 -109 -142 -143 -67 -35
-75 -22 -43 65 18 46 23 71 16 78 -11 11 -16 0 -46 -94 -13 -42 -22 -55 -34
-53 -9 3 -22 0 -30 -5 -11 -7 -11 -14 4 -39 17 -28 17 -32 -4 -102 -21 -68
-22 -95 -2 -74 5 5 16 38 25 74 18 68 39 110 57 110 6 0 18 -4 28 -9 9 -5 23
-6 30 -2 10 6 8 10 -6 15 -15 6 -13 11 19 30 101 61 145 116 134 168 -7 33
-23 58 -38 58 -5 0 0 -12 11 -26z"/>
<path d="M6118 443 c-29 -54 -54 -104 -56 -110 -2 -7 -8 -13 -13 -13 -6 0 -8
8 -5 18 2 9 8 46 11 82 5 52 4 69 -8 78 -12 10 -14 8 -10 -10 2 -13 -5 -86
-16 -162 -11 -76 -18 -143 -15 -148 9 -14 24 2 24 25 0 58 151 340 171 320 6
-6 2 -58 -10 -136 -20 -135 -27 -302 -14 -310 4 -3 9 32 10 76 1 45 11 140 21
212 21 137 18 175 -17 175 -14 0 -34 -26 -73 -97z"/>
<path d="M7509 514 c12 -15 21 -35 21 -46 0 -41 -147 -168 -194 -168 -22 0
-20 21 9 92 17 41 22 65 15 72 -10 10 -28 -25 -51 -101 -7 -24 -18 -43 -26
-43 -8 0 -23 -5 -34 -10 -19 -11 -19 -11 1 -38 l20 -27 -20 -70 c-11 -38 -20
-73 -20 -77 0 -15 19 -8 24 10 43 152 47 160 68 165 12 3 29 2 38 -3 21 -12
34 -1 19 16 -8 10 -2 17 23 29 48 25 126 104 133 136 7 29 -18 89 -36 89 -6 0
-1 -12 10 -26z"/>
<path d="M4145 519 c-79 -14 -159 -31 -168 -36 -4 -2 -5 -8 -3 -12 3 -4 42 0
86 10 45 9 109 20 143 24 46 6 57 10 42 16 -24 9 -36 9 -100 -2z"/>
<path d="M4865 524 c-11 -3 -59 -12 -108 -21 -82 -15 -108 -25 -90 -36 5 -3
44 3 88 13 44 10 107 21 140 25 45 6 55 10 40 16 -22 8 -39 9 -70 3z"/>
<path d="M5824 520 c-26 -10 -56 -51 -88 -119 -25 -55 -26 -104 -1 -131 9 -10
15 -36 15 -61 0 -90 54 -116 110 -53 40 46 66 107 81 188 25 135 -27 213 -117
176z m90 -34 c39 -83 0 -239 -82 -328 -44 -47 -62 -33 -62 46 0 41 1 43 41 55
23 7 38 15 35 18 -3 3 -19 1 -35 -5 -20 -7 -31 -7 -31 -1 0 18 39 87 52 92 7
2 10 8 6 12 -14 15 -39 -6 -60 -52 -29 -61 -27 -60 -38 -43 -25 40 10 135 76
203 47 48 76 49 98 3z"/>
<path d="M6655 514 c-100 -18 -149 -34 -138 -44 4 -5 44 0 88 10 44 10 107 21
139 25 41 5 55 10 45 16 -18 11 -37 10 -134 -7z"/>
<path d="M7767 502 c-15 -15 -27 -30 -27 -33 0 -10 -113 -129 -123 -129 -10 0
-4 114 9 158 4 12 2 22 -4 22 -12 0 -32 -85 -32 -134 0 -39 21 -71 43 -63 8 3
40 37 71 76 31 38 61 73 66 76 6 4 -11 -37 -38 -92 -27 -54 -57 -116 -67 -138
-9 -22 -21 -49 -26 -60 -23 -53 -39 -111 -39 -146 0 -47 16 -53 18 -6 2 53 41
165 98 283 46 96 59 113 87 124 54 21 97 41 97 45 0 3 -21 2 -46 -2 -44 -6
-46 -5 -42 17 5 34 -14 34 -45 2z"/>
<path d="M8098 523 c7 -3 16 -2 19 1 4 3 -2 6 -13 5 -11 0 -14 -3 -6 -6z"/>
<path d="M7995 510 c-3 -5 -4 -10 -1 -10 3 0 -6 -33 -20 -72 -13 -40 -27 -86
-30 -102 -6 -36 -13 -48 -23 -41 -5 2 -12 -18 -15 -47 -4 -28 -13 -69 -21 -92
-8 -22 -11 -44 -6 -49 8 -8 28 39 56 138 32 109 77 240 91 263 13 20 13 22 -5
22 -11 0 -23 -4 -26 -10z"/>
<path d="M8110 466 c-6 -19 -13 -60 -15 -90 -4 -66 -8 -74 -52 -93 -19 -8 -33
-17 -30 -19 3 -3 14 -1 25 5 37 20 43 14 37 -34 -4 -24 -2 -52 3 -61 7 -12 11
0 16 47 5 40 14 68 24 77 9 7 11 10 3 6 -11 -6 -12 3 -7 48 4 30 13 76 21 102
12 39 12 46 0 46 -7 0 -19 -15 -25 -34z"/>
<path d="M4226 463 c-10 -36 -26 -176 -26 -234 0 -100 45 -168 70 -106 57 139
95 247 88 247 -4 0 -8 -5 -8 -10 0 -10 -26 -65 -68 -143 -11 -21 -25 -53 -32
-70 -30 -86 -40 74 -15 228 8 50 15 93 15 98 0 15 -19 7 -24 -10z"/>
<path d="M3653 410 c0 -36 2 -50 4 -32 2 17 2 47 0 65 -2 17 -4 3 -4 -33z"/>
<path d="M4025 448 c-30 -98 -39 -119 -52 -127 -10 -5 -12 -11 -5 -15 7 -4 5
-20 -8 -49 -24 -53 -25 -69 -2 -98 18 -21 21 -22 65 -9 26 7 52 19 59 28 11
13 10 15 -12 9 -14 -4 -44 -10 -67 -13 -42 -7 -43 -6 -43 22 1 16 11 47 24 69
20 34 29 41 69 49 58 10 64 31 7 23 -45 -6 -46 -5 -25 53 8 23 15 49 15 56 0
17 -19 18 -25 2z"/>
<path d="M4511 444 c0 -11 3 -14 6 -6 3 7 2 16 -1 19 -3 4 -6 -2 -5 -13z"/>
<path d="M4701 390 c-15 -47 -27 -70 -38 -70 -12 0 -13 -3 -4 -14 10 -11 9
-21 -3 -45 -20 -38 -21 -95 -1 -111 22 -18 118 8 128 34 4 10 -2 10 -31 0 -21
-7 -52 -13 -70 -14 -30 0 -33 2 -27 23 3 12 10 31 15 42 5 11 14 32 19 46 8
22 18 28 55 33 63 10 74 31 12 24 -25 -3 -46 -5 -46 -3 0 1 9 27 19 58 18 51
18 67 1 67 -3 0 -16 -31 -29 -70z"/>
<path d="M6570 445 c0 -33 -42 -125 -57 -125 -12 0 -13 -3 -4 -14 10 -11 9
-21 -3 -45 -20 -38 -21 -95 -1 -111 20 -17 112 5 125 30 9 16 7 16 -28 4 -20
-7 -52 -13 -70 -14 -30 0 -32 2 -26 27 4 15 7 33 7 40 0 7 4 13 8 13 4 0 12
13 17 29 9 24 17 30 56 35 63 10 74 31 12 24 -25 -3 -46 -5 -46 -4 0 0 9 25
20 54 11 29 18 57 15 63 -9 14 -25 11 -25 -6z"/>
<path d="M7061 390 c-15 -49 -27 -70 -39 -70 -12 0 -13 -3 -5 -11 9 -9 7 -24
-8 -61 -17 -43 -18 -53 -6 -76 10 -22 19 -27 46 -25 41 1 88 21 95 38 4 11 -2
11 -36 -1 -22 -8 -53 -14 -69 -14 -25 0 -28 3 -26 29 1 16 6 27 11 23 5 -3 7
2 3 11 -3 10 -3 17 1 17 4 0 12 13 18 29 10 24 19 29 57 35 64 10 75 31 13 24
-25 -3 -46 -4 -46 -3 0 1 7 22 15 45 8 23 15 51 15 61 0 39 -17 17 -39 -51z"/>
<path d="M7881 435 c22 -26 42 -92 35 -110 -3 -8 -1 -15 4 -15 25 0 -1 99 -33
126 -22 19 -22 19 -6 -1z"/>
<path d="M4501 384 c0 -11 3 -14 6 -6 3 7 2 16 -1 19 -3 4 -6 -2 -5 -13z"/>
<path d="M8391 374 c0 -11 3 -14 6 -6 3 7 2 16 -1 19 -3 4 -6 -2 -5 -13z"/>
<path d="M8976 358 c-8 -13 -18 -36 -21 -51 -4 -15 -32 -53 -61 -84 -61 -64
-79 -63 -72 6 2 23 0 41 -4 41 -8 0 -12 -25 -9 -44 1 -5 -4 -13 -11 -17 -9 -6
-8 -13 6 -28 25 -28 48 -26 84 4 26 21 31 23 36 9 3 -9 3 -21 0 -27 -5 -8 -4
-9 3 -2 5 6 20 39 33 75 12 36 31 79 41 96 27 44 3 65 -25 22z"/>
<path d="M8852 361 c-8 -4 -13 -11 -13 -15 3 -22 0 -36 -7 -32 -4 2 -8 -4 -8
-15 0 -31 10 -22 27 26 9 25 16 45 15 45 0 0 -7 -4 -14 -9z"/>
<path d="M8148 303 c6 -2 18 -2 25 0 6 3 1 5 -13 5 -14 0 -19 -2 -12 -5z"/>
<path d="M3786 251 c-3 -4 6 -19 19 -31 14 -13 25 -19 25 -14 0 5 -9 16 -19
24 -11 7 -18 17 -15 22 3 4 3 8 0 8 -3 0 -7 -4 -10 -9z"/>
<path d="M5401 241 c-1 -28 -62 -87 -96 -93 -46 -9 -48 8 -5 42 47 37 47 49 0
25 -42 -22 -59 -60 -38 -82 15 -15 20 -14 64 8 57 28 88 66 81 100 l-4 24 -2
-24z"/>
<path d="M7428 244 c-4 -3 5 -22 18 -42 34 -49 40 -54 20 -15 -9 17 -20 35
-26 38 -6 4 -8 11 -5 16 7 10 2 12 -7 3z"/>
<path d="M3830 181 c0 -6 4 -13 10 -16 6 -3 7 1 4 9 -7 18 -14 21 -14 7z"/>
<path d="M8917 128 c-8 -31 4 -68 29 -88 16 -14 16 -13 4 10 -8 14 -17 43 -20
65 -5 38 -6 38 -13 13z"/>
</g>
</svg>
